<svg xmlns="http://www.w3.org/2000/svg" width="560.896" height="345.829" viewBox="0 0 560.896 345.829"><defs><style>.a{opacity:0.5;}.b{fill:#3f3d56;}.c,.f{fill:#fafafa;}.c{opacity:0.7;}.d{fill:#ccc;}.e{fill:#f2f2f2;}.g{fill:#3c3c3c;}</style></defs><g class="a" transform="translate(-40 -42.165)"><rect class="b" width="1.77" height="69.906" transform="translate(206.575 314.658)"/><path class="c" d="M889.881,632.348c-.113,24.444,17.085,44.34,17.085,44.34s17.38-19.736,17.493-44.181-17.085-44.34-17.085-44.34S889.993,607.9,889.881,632.348Z" transform="translate(-699.639 -308.782)"/><path class="b" d="M707.91,696.8c-1.5,5.541-6.633,8.973-6.633,8.973s-2.7-5.552-1.2-11.093,6.633-8.973,6.633-8.973S709.409,691.26,707.91,696.8Z" transform="translate(-315.183 -320.011)"/><path class="c" d="M695.619,696.333c-4.113,4-4.616,10.159-4.616,10.159s6.166-.337,10.279-4.341,4.616-10.159,4.616-10.159S699.732,692.33,695.619,696.333Z" transform="translate(-305.094 -320.734)"/><path class="b" d="M581.371,455.6l3.661-6.1L550.863,420.21H463v8.542l31.728,34.17,36.61,7.322Z" transform="translate(-10.347 -120.46)"/><path class="d" d="M567.12,437.149V418.056h11.5v6.021l3.621-4.115,29.288,29.288,4.882,4.881,6.1,24.407-10.983,26.846H555.4V450.47Z" transform="translate(-129.591 -120.212)"/><rect class="e" width="92.744" height="56.135" transform="translate(481.941 329.038)"/><rect class="b" width="19.525" height="17.084" transform="translate(494.755 346.733)"/><rect class="d" width="17.084" height="39.05" transform="translate(522.212 346.122)"/><path class="b" d="M472.654,478.716v-6.1h7.322v6.1h-7.322Z" transform="translate(86.168 -126.492)"/><path class="b" d="M473.264,485.026h6.711v6.1h-7.322v-6.1Z" transform="translate(86.168 -127.921)"/><rect class="b" width="7.322" height="6.102" transform="translate(546.618 346.122)"/><rect class="b" width="7.322" height="6.102" transform="translate(546.618 357.105)"/><path class="b" d="M589.185,479.406v-6.1h7.322v6.1h-7.322Z" transform="translate(-133.481 -126.572)"/><path class="b" d="M589.8,485.716h6.712v6.1h-7.322v-6.1Z" transform="translate(-133.481 -128.001)"/><rect class="b" width="7.322" height="6.102" transform="translate(443.501 346.733)"/><rect class="b" width="7.322" height="6.102" transform="translate(443.501 357.715)"/><path class="b" d="M791.33,339.757l6.1-4.882-34.169-30.508H676.62v26.847l56.134,37.83Z" transform="translate(-411.774 -107.124)"/><path class="d" d="M763.264,321.481v-16.5h11.5v4.042l4.293-4.652,28.067,30.508L818.11,342.2l17.03,124.417L809.458,492.3H749.773V336.1Z" transform="translate(-514.215 -107.124)"/><rect class="f" width="92.744" height="157.421" transform="translate(292.913 227.752)"/><rect class="d" width="17.084" height="38.44" transform="translate(332.574 346.733)"/><path class="b" d="M688.342,484.922v-6.1h7.321v6.1h-7.321Z" transform="translate(-320.379 -127.207)"/><path class="b" d="M688.952,491.232h6.712v6.1h-7.321v-6.1Z" transform="translate(-320.379 -128.636)"/><rect class="b" width="7.322" height="6.102" transform="translate(355.76 351.614)"/><rect class="b" width="7.322" height="6.102" transform="translate(355.76 362.597)"/><path class="b" d="M744.884,484.922v-6.1h7.321v6.1h-7.321Z" transform="translate(-426.954 -127.207)"/><path class="b" d="M745.493,491.232h6.712v6.1h-7.321v-6.1Z" transform="translate(-426.954 -128.636)"/><rect class="b" width="7.322" height="6.102" transform="translate(305.727 351.614)"/><rect class="b" width="7.322" height="6.102" transform="translate(305.727 362.597)"/><path class="b" d="M802.8,347.014v-6.1h7.322v6.1H802.8Z" transform="translate(-536.128 -111.331)"/><path class="b" d="M803.415,353.325h6.712v6.1H802.8v-6.1Z" transform="translate(-536.128 -112.76)"/><rect class="b" width="7.322" height="6.102" transform="translate(254.473 229.582)"/><rect class="b" width="7.322" height="6.102" transform="translate(254.473 240.565)"/><path class="b" d="M802.8,385.629v-6.1h7.322v6.1H802.8Z" transform="translate(-536.128 -115.776)"/><path class="b" d="M803.415,391.939h6.712v6.1H802.8v-6.1Z" transform="translate(-536.128 -117.205)"/><rect class="b" width="7.322" height="6.102" transform="translate(254.473 263.751)"/><rect class="b" width="7.322" height="6.102" transform="translate(254.473 274.734)"/><path class="b" d="M802.8,424.243v-6.1h7.322v6.1H802.8Z" transform="translate(-536.128 -120.221)"/><path class="b" d="M803.415,430.553h6.712v6.1H802.8v-6.1Z" transform="translate(-536.128 -121.65)"/><rect class="b" width="7.322" height="6.102" transform="translate(254.473 297.92)"/><rect class="b" width="7.322" height="6.102" transform="translate(254.473 308.903)"/><path class="b" d="M802.8,462.857v-6.1h7.322v6.1H802.8Z" transform="translate(-536.128 -124.667)"/><path class="b" d="M803.415,469.167h6.712v6.1H802.8v-6.1Z" transform="translate(-536.128 -126.095)"/><rect class="b" width="7.322" height="6.102" transform="translate(254.473 332.089)"/><rect class="b" width="7.322" height="6.102" transform="translate(254.473 343.072)"/><rect class="b" width="70.778" height="14.644" transform="translate(304.506 235.684)"/><rect class="b" width="70.778" height="14.644" transform="translate(304.506 264.971)"/><rect class="b" width="70.778" height="14.644" transform="translate(304.506 294.259)"/><rect class="b" width="70.778" height="14.644" transform="translate(304.506 323.546)"/><path class="b" d="M1012.33,339.757l6.1-4.882-34.169-30.508H897.62v26.847l56.134,37.83Z" transform="translate(-828.332 -107.124)"/><path class="d" d="M984.264,321.481v-16.5h11.5v4.042l4.293-4.652,28.068,30.508,10.982,7.322,17.029,124.417L1030.458,492.3H970.773V336.1Z" transform="translate(-930.773 -107.124)"/><rect class="f" width="92.744" height="157.421" transform="translate(97.355 227.752)"/><rect class="d" width="17.084" height="38.44" transform="translate(137.015 346.733)"/><path class="b" d="M909.342,484.922v-6.1h7.321v6.1h-7.321Z" transform="translate(-736.937 -127.207)"/><path class="b" d="M909.951,491.232h6.712v6.1h-7.321v-6.1Z" transform="translate(-736.937 -128.636)"/><rect class="b" width="7.322" height="6.102" transform="translate(160.201 351.614)"/><rect class="b" width="7.322" height="6.102" transform="translate(160.201 362.597)"/><path class="b" d="M965.884,484.922v-6.1h7.322v6.1h-7.322Z" transform="translate(-843.512 -127.207)"/><path class="b" d="M966.493,491.232h6.712v6.1h-7.322v-6.1Z" transform="translate(-843.512 -128.636)"/><rect class="b" width="7.322" height="6.102" transform="translate(110.168 351.614)"/><rect class="b" width="7.322" height="6.102" transform="translate(110.168 362.597)"/><path class="b" d="M1023.8,347.014v-6.1h7.321v6.1H1023.8Z" transform="translate(-952.687 -111.331)"/><path class="b" d="M1024.414,353.325h6.712v6.1H1023.8v-6.1Z" transform="translate(-952.687 -112.76)"/><rect class="b" width="7.322" height="6.102" transform="translate(58.915 229.582)"/><rect class="b" width="7.322" height="6.102" transform="translate(58.915 240.565)"/><path class="b" d="M1023.8,385.629v-6.1h7.321v6.1H1023.8Z" transform="translate(-952.687 -115.776)"/><path class="b" d="M1024.414,391.939h6.712v6.1H1023.8v-6.1Z" transform="translate(-952.687 -117.205)"/><rect class="b" width="7.322" height="6.102" transform="translate(58.915 263.751)"/><rect class="b" width="7.322" height="6.102" transform="translate(58.915 274.734)"/><path class="b" d="M1023.8,424.243v-6.1h7.321v6.1H1023.8Z" transform="translate(-952.687 -120.221)"/><path class="b" d="M1024.414,430.553h6.712v6.1H1023.8v-6.1Z" transform="translate(-952.687 -121.65)"/><rect class="b" width="7.322" height="6.102" transform="translate(58.915 297.92)"/><rect class="b" width="7.322" height="6.102" transform="translate(58.915 308.903)"/><path class="b" d="M1023.8,462.857v-6.1h7.321v6.1H1023.8Z" transform="translate(-952.687 -124.667)"/><path class="b" d="M1024.414,469.167h6.712v6.1H1023.8v-6.1Z" transform="translate(-952.687 -126.095)"/><rect class="b" width="7.322" height="6.102" transform="translate(58.915 332.089)"/><rect class="b" width="7.322" height="6.102" transform="translate(58.915 343.072)"/><rect class="b" width="70.778" height="14.644" transform="translate(108.948 235.684)"/><rect class="b" width="70.778" height="14.644" transform="translate(108.948 264.971)"/><rect class="b" width="70.778" height="14.644" transform="translate(108.948 294.259)"/><rect class="b" width="70.778" height="14.644" transform="translate(108.948 323.546)"/><path class="g" d="M560.9,1.661H0V0H560.9Z" transform="translate(40 386.333)"/><rect class="b" width="1.77" height="69.906" transform="translate(582.649 314.658)"/><path class="c" d="M464.881,632.348c-.113,24.444,17.085,44.34,17.085,44.34s17.38-19.736,17.493-44.181-17.085-44.34-17.085-44.34S464.994,607.9,464.881,632.348Z" transform="translate(101.436 -308.782)"/><rect class="b" width="1.77" height="69.906" transform="translate(229.582 314.658)"/><path class="c" d="M863.881,632.348c-.113,24.444,17.085,44.34,17.085,44.34s17.38-19.736,17.493-44.181-17.085-44.34-17.085-44.34S863.994,607.9,863.881,632.348Z" transform="translate(-650.632 -308.782)"/><path class="b" d="M574,219.913c0,15.984,28.941,61.171,28.941,61.171s28.941-45.187,28.941-61.171a28.941,28.941,0,1,0-57.882,0Z" transform="translate(-299.768 -148.807)"/><ellipse class="f" cx="16.444" cy="16.444" rx="16.444" ry="16.444" transform="translate(286.73 54.662)"/></g></svg>