<svg xmlns="http://www.w3.org/2000/svg" width="360.438" height="219.722" viewBox="0 0 360.438 219.722"><defs><style>.a{fill:#3f3d56;}.b{fill:#fafafa;opacity:0.7;}.c{fill:#ccc;}.d{fill:#f2f2f2;}</style></defs><path class="a" d="M440.891,559.823l.619-.139a140.791,140.791,0,0,0-274.562-.374l.618.141A139.346,139.346,0,0,1,304.186,450.579C369.164,450.579,426.656,496.523,440.891,559.823Z" transform="translate(-124.009 -340.102)"/><ellipse class="b" cx="17.218" cy="17.218" rx="17.218" ry="17.218" transform="translate(210.985 4.783)"/><path class="a" d="M217.089,775.655a6.38,6.38,0,0,1-2.376,3.214,5.493,5.493,0,0,1,1.945-7.188A6.381,6.381,0,0,1,217.089,775.655Z" transform="translate(85.295 -559.845)"/><path class="b" d="M207.157,779.521a6.38,6.38,0,0,0-1.654,3.639,5.493,5.493,0,0,0,5.336-5.194A6.38,6.38,0,0,0,207.157,779.521Z" transform="translate(94.438 -564.138)"/><path class="a" d="M346.089,775.655a6.38,6.38,0,0,1-2.376,3.214,5.493,5.493,0,0,1,1.945-7.188A6.381,6.381,0,0,1,346.089,775.655Z" transform="translate(-84.599 -559.845)"/><path class="b" d="M336.156,779.521a6.38,6.38,0,0,0-1.654,3.639,5.493,5.493,0,0,0,5.336-5.194A6.38,6.38,0,0,0,336.156,779.521Z" transform="translate(-75.456 -564.138)"/><path class="a" d="M439.007,101.081l6.475-5.18L409.224,63.529H317.286V92.017l59.566,40.142Z" transform="translate(-185.626 -43.39)"/><path class="c" d="M548.279,81.688V64.176h12.207v4.289l4.556-4.935L594.825,95.9l11.654,7.77,18.07,132.022L597.3,262.944H533.964V97.2Z" transform="translate(-433.382 -43.39)"/><rect class="d" width="98.413" height="167.043" transform="translate(161.443 52.512)"/><rect class="c" width="18.129" height="40.79" transform="translate(203.527 178.765)"/><path class="a" d="M352.007,586.728v-6.475h7.769v6.475h-7.769Z" transform="translate(-110.928 -396.309)"/><path class="a" d="M352.654,617.016h7.122v6.475h-7.769v-6.475Z" transform="translate(-110.928 -421.417)"/><rect class="a" width="7.769" height="6.475" transform="translate(228.13 183.945)"/><rect class="a" width="7.769" height="6.475" transform="translate(228.13 195.599)"/><path class="a" d="M519.483,586.728v-6.475h7.769v6.475h-7.769Z" transform="translate(-331.495 -396.309)"/><path class="a" d="M520.13,617.016h7.122v6.475h-7.769v-6.475Z" transform="translate(-331.495 -421.417)"/><rect class="a" width="7.769" height="6.475" transform="translate(175.039 183.945)"/><rect class="a" width="7.769" height="6.475" transform="translate(175.039 195.599)"/><path class="a" d="M691.043,178.25v-6.474h7.77v6.474h-7.77Z" transform="translate(-557.441 -117.322)"/><path class="a" d="M691.69,208.539h7.122v6.474h-7.77v-6.474Z" transform="translate(-557.441 -142.431)"/><rect class="a" width="7.769" height="6.475" transform="translate(120.653 54.454)"/><rect class="a" width="7.769" height="6.475" transform="translate(120.653 66.108)"/><path class="a" d="M691.043,292.624v-6.475h7.77v6.475h-7.77Z" transform="translate(-557.441 -195.438)"/><path class="a" d="M691.69,322.912h7.122v6.475h-7.77v-6.475Z" transform="translate(-557.441 -220.546)"/><rect class="a" width="7.769" height="6.475" transform="translate(120.653 90.711)"/><rect class="a" width="7.769" height="6.475" transform="translate(120.653 102.366)"/><path class="a" d="M691.043,407v-6.475h7.77V407h-7.77Z" transform="translate(-557.441 -273.554)"/><path class="a" d="M691.69,437.286h7.122v6.475h-7.77v-6.475Z" transform="translate(-557.441 -298.663)"/><rect class="a" width="7.769" height="6.475" transform="translate(120.653 126.969)"/><rect class="a" width="7.769" height="6.475" transform="translate(120.653 138.623)"/><path class="a" d="M691.043,521.372V514.9h7.77v6.475h-7.77Z" transform="translate(-557.441 -351.671)"/><path class="a" d="M691.69,551.66h7.122v6.475h-7.77V551.66Z" transform="translate(-557.441 -376.78)"/><rect class="a" width="7.769" height="6.475" transform="translate(120.653 163.226)"/><rect class="a" width="7.769" height="6.475" transform="translate(120.653 174.88)"/><rect class="a" width="75.104" height="15.539" transform="translate(173.744 60.929)"/><rect class="a" width="75.104" height="15.539" transform="translate(173.744 92.006)"/><rect class="a" width="75.104" height="15.539" transform="translate(173.744 123.084)"/><rect class="a" width="75.104" height="15.539" transform="translate(173.744 154.162)"/><rect class="a" width="360.438" height="0.634" transform="translate(0 218.903)"/><rect class="a" width="1.862" height="73.563" transform="translate(298.215 145.701)"/><path class="b" d="M167.212,492.465c-.119,25.723,17.979,46.66,17.979,46.66s18.29-20.769,18.408-46.492-17.979-46.66-17.979-46.66S167.331,466.742,167.212,492.465Z" transform="translate(113.816 -337.389)"/><rect class="a" width="1.862" height="73.563" transform="translate(322.426 145.701)"/><path class="b" d="M90.84,492.465c-.119,25.723,17.979,46.66,17.979,46.66s18.29-20.769,18.408-46.492-17.979-46.66-17.979-46.66S90.959,466.742,90.84,492.465Z" transform="translate(214.398 -337.389)"/><path class="d" d="M919.624,240.543c14.67.068,26.611.284,26.611.284s-14.194-18.8-26.558-11.835a168.831,168.831,0,0,1-26.567,11.59S904.954,240.475,919.624,240.543Z" transform="translate(-858.935 -188.135)"/><path class="d" d="M148.624,354.543c14.67.068,26.611.284,26.611.284s-14.194-18.8-26.558-11.835a168.83,168.83,0,0,1-26.567,11.59S133.954,354.475,148.624,354.543Z" transform="translate(156.478 -265.996)"/><path class="d" d="M316.624,116.543c14.67.068,26.611.284,26.611.284s-14.194-18.8-26.558-11.835a168.833,168.833,0,0,1-26.567,11.59S301.954,116.475,316.624,116.543Z" transform="translate(-64.779 -103.444)"/><rect class="a" width="1.862" height="73.563" transform="translate(30.462 145.701)"/><path class="b" d="M1011.84,492.465c-.118,25.723,17.979,46.66,17.979,46.66s18.29-20.769,18.408-46.492-17.979-46.66-17.979-46.66S1011.959,466.742,1011.84,492.465Z" transform="translate(-998.566 -337.389)"/><path class="a" d="M842.608,537.855H823.813v-4.537h-10.37v4.537H794v20.091h19.443v25.276h10.37V557.946h18.795l9.722-11.018Z" transform="translate(-743.596 -364.252)"/></svg>